<svg width="20" height="20" viewBox="0 0 20 20" fill="none" xmlns="http://www.w3.org/2000/svg">
<path d="M5.83362 11.167C5.47999 11.167 5.14031 11.3076 4.89026 11.5576C4.64041 11.8076 4.49963 12.1465 4.49963 12.5C4.49963 12.8535 4.64041 13.1924 4.89026 13.4424C5.14031 13.6924 5.48 13.833 5.83362 13.833H6.66663C7.02025 13.833 7.35896 13.6924 7.60901 13.4424C7.85906 13.1923 7.99963 12.8536 7.99963 12.5C7.99963 12.1464 7.85906 11.8077 7.60901 11.5576C7.35896 11.3076 7.02025 11.167 6.66663 11.167H5.83362ZM13.3336 11.167C12.98 11.167 12.6403 11.3076 12.3903 11.5576C12.1404 11.8076 11.9996 12.1465 11.9996 12.5C11.9996 12.8535 12.1404 13.1924 12.3903 13.4424C12.6403 13.6924 12.98 13.833 13.3336 13.833H14.1666C14.5202 13.833 14.859 13.6924 15.109 13.4424C15.3591 13.1923 15.4996 12.8536 15.4996 12.5C15.4996 12.1464 15.3591 11.8077 15.109 11.5576C14.859 11.3076 14.5202 11.167 14.1666 11.167H13.3336ZM4.99963 3.66699C4.64613 3.66708 4.30722 3.80765 4.05725 4.05762C3.8073 4.30765 3.66663 4.64645 3.66663 5V9.66699H16.3336V5C16.3336 4.64653 16.1928 4.30764 15.943 4.05762C15.6929 3.80757 15.3533 3.66699 14.9996 3.66699H13.5397L13.401 3.94336L11.9645 6.81543L11.9606 6.82227L11.9576 6.8291C11.9389 6.86961 11.9125 6.90651 11.8795 6.93652C11.8465 6.96655 11.8074 6.98914 11.7653 7.00391C11.7232 7.01863 11.6788 7.02523 11.6344 7.02246C11.59 7.01965 11.5463 7.00809 11.5065 6.98828C11.4666 6.96836 11.4309 6.94009 11.402 6.90625C11.373 6.8723 11.351 6.8326 11.3375 6.79004C11.3241 6.7475 11.3187 6.70262 11.3229 6.6582C11.3271 6.61381 11.3408 6.5705 11.3619 6.53125L11.3658 6.52441L11.3688 6.51758L12.4323 4.39062L12.7936 3.66699H9.37268L9.23401 3.94336L7.80139 6.80664C7.75997 6.88031 7.69266 6.93639 7.61194 6.96191C7.5294 6.98797 7.43936 6.98012 7.36194 6.94141C7.28472 6.90263 7.22549 6.83547 7.1969 6.75391C7.17538 6.69252 7.17286 6.62675 7.18811 6.56445L7.20862 6.50391L8.26526 4.39062L8.62756 3.66699H4.99963ZM2.99963 7.83301H2.49963C2.41135 7.83292 2.32672 7.79779 2.26428 7.73535C2.20187 7.67285 2.16663 7.58833 2.16663 7.5V5.83301C2.16671 5.74472 2.20185 5.66009 2.26428 5.59766C2.32672 5.53522 2.41135 5.50009 2.49963 5.5H2.99963V5C2.99963 4.46964 3.2106 3.96099 3.58557 3.58594C3.96057 3.21094 4.46932 3.00009 4.99963 3H14.9996C15.53 3 16.0386 3.21097 16.4137 3.58594C16.7888 3.96101 16.9996 4.46957 16.9996 5V5.5H17.4996C17.588 5.5 17.6734 5.53514 17.736 5.59766C17.7983 5.66008 17.8335 5.7448 17.8336 5.83301V7.5C17.8336 7.58825 17.7983 7.67287 17.736 7.73535C17.6734 7.79786 17.588 7.83301 17.4996 7.83301H16.9996V14.167C16.9996 14.3717 16.9457 14.5727 16.8434 14.75C16.741 14.9273 16.5939 15.0744 16.4166 15.1768L16.1666 15.3213V16.25C16.1666 16.4489 16.0876 16.6396 15.9469 16.7803C15.8062 16.9209 15.6155 17 15.4166 17C15.2177 17 15.027 16.9209 14.8864 16.7803C14.7457 16.6396 14.6666 16.4489 14.6666 16.25V15.333H5.33362V16.25C5.33362 16.4488 5.25444 16.6396 5.11389 16.7803C4.97332 16.9208 4.78241 16.9999 4.58362 17C4.38478 17 4.19398 16.9208 4.05334 16.7803C3.91269 16.6396 3.83362 16.4489 3.83362 16.25V15.3213L3.58362 15.1768C3.40627 15.0744 3.25828 14.9274 3.15588 14.75C3.0536 14.5728 2.9997 14.3716 2.99963 14.167V7.83301Z" fill="#0E0E12" stroke="#0E0E12"/>
</svg>
